<svg width="300" height="160" viewBox="0 0 1200 160" fill="none" xmlns="http://www.w3.org/2000/svg">
<path fill-rule="evenodd" clip-rule="evenodd" d="M39.5904 98.2021L82.512 118.046C87.8317 120.507 91.5868 124.636 93.6147 129.373C98.7439 141.369 91.7337 153.638 80.7288 158.05C69.7222 162.46 57.9919 159.622 52.6582 147.147L33.9787 103.35C32.5312 99.9554 36.1675 96.6196 39.5904 98.2021Z" fill="#FFC233"/>
<path fill-rule="evenodd" clip-rule="evenodd" d="M42.1685 85.3576L86.4746 68.6093C101.2 63.0429 117.285 73.5749 117.068 88.8779C117.064 89.0776 117.061 89.2773 117.056 89.4787C116.738 104.381 101.1 114.396 86.6984 109.124L42.2105 92.8416C38.6616 91.5435 38.6354 86.693 42.1685 85.3576Z" fill="#FFC233"/>
<path fill-rule="evenodd" clip-rule="evenodd" d="M39.6849 79.5563L83.2393 61.0496C97.7126 54.8992 101.386 36.4398 90.0502 25.7741C89.9017 25.6336 89.7531 25.4949 89.6027 25.3561C78.4895 15.0407 60.1177 18.6727 53.791 32.2595L34.2463 74.237C32.6869 77.5847 36.2112 81.0321 39.6849 79.5563Z" fill="#FFC233"/>
<path fill-rule="evenodd" clip-rule="evenodd" d="M28.4769 72.243L44.312 28.8235C46.2752 23.4399 45.9116 17.9496 43.882 13.2125C38.7423 1.22159 24.8232 -2.64901 13.8201 1.76994C2.81875 6.19058 -3.39781 16.2301 1.9464 28.7L20.7482 72.4494C22.2062 75.8394 27.2147 75.7057 28.4769 72.243Z" fill="#FFC233"/>
<path fill-rule="evenodd" clip-rule="evenodd" d="M232.799 79.1658H268.818C266.42 70.0148 259.848 66.3049 251.845 66.3049C243.045 66.3049 235.993 71.1013 232.799 79.1658ZM289.95 94.8157H231.521C233.919 106.602 243.84 110.945 252.483 110.945C263.369 110.945 268.023 104.432 268.023 104.432H288.19C282.103 119.93 267.54 128.45 251.845 128.45C230.23 128.45 211.341 112.485 211.341 88.3151C211.341 64.2859 230.073 49.406 251.205 49.406C271.699 49.406 292.518 63.1994 289.95 94.8157Z" fill="white"/>
<path fill-rule="evenodd" clip-rule="evenodd" d="M488.442 88.9337C488.442 76.8429 481.077 67.3907 468.913 67.3907C456.739 67.3907 448.576 76.8429 448.576 88.9337C448.576 101.024 456.739 110.477 468.913 110.477C481.077 110.477 488.442 101.024 488.442 88.9337ZM427.602 89.0843C427.602 64.2867 447.456 49.4068 468.913 49.4068C490.528 49.4068 509.417 64.4373 509.417 88.7695C509.417 113.418 489.876 128.449 468.263 128.449C446.491 128.449 427.602 113.418 427.602 89.0843Z" fill="white"/>
<path fill-rule="evenodd" clip-rule="evenodd" d="M595.119 85.6778V127.679H573.817V90.3218C573.817 87.685 575.747 68.1594 560.377 67.391C552.842 66.9239 539.4 70.9485 539.4 91.2561V127.679H518.27V50.1756H537.668L537.731 60.9344C537.731 60.9344 546.477 49.4055 562.789 49.4055C583.439 49.4055 595.119 64.2854 595.119 85.6778Z" fill="white"/>
<path fill-rule="evenodd" clip-rule="evenodd" d="M672.985 65.8379C666.258 65.8379 663.377 69.0941 663.377 72.3504C663.377 77.6138 670.586 79.1658 675.383 80.1C689.645 83.0398 704.05 87.2302 704.05 103.649C704.05 119.615 690.441 128.45 673.95 128.45C655.541 128.45 641.294 117.608 640.329 101.176H660.013C660.496 105.82 663.702 111.865 673.467 111.865C681.628 111.865 683.558 107.688 683.558 104.432C683.558 98.6897 677.951 96.9855 672.502 95.7483C663.064 93.7292 642.727 90.0194 642.727 72.3504C642.727 57.1557 657.784 49.406 673.31 49.406C691.236 49.406 703.085 59.9448 704.05 72.9681H684.352C683.713 70.3313 681.159 65.8379 672.985 65.8379Z" fill="white"/>
<path fill-rule="evenodd" clip-rule="evenodd" d="M768.776 88.9336C768.776 76.0609 761.566 68.4754 751.165 68.4754C741.399 68.4754 731.622 75.2909 731.622 88.9336C731.622 102.564 741.399 109.392 751.165 109.392C761.566 109.392 768.776 101.794 768.776 88.9336ZM788.787 50.1769V158.676H768.776V120.081C763.652 125.659 756.444 128.449 748.114 128.449C727.79 128.449 710.816 112.333 710.816 88.9336C710.816 65.5222 727.79 49.4068 748.114 49.4068C764.089 49.4068 770.07 59.7865 770.07 59.7865L770.04 50.1769H788.787Z" fill="white"/>
<path fill-rule="evenodd" clip-rule="evenodd" d="M903.194 79.1658H939.214C936.815 70.0148 930.244 66.3049 922.241 66.3049C913.44 66.3049 906.388 71.1013 903.194 79.1658ZM960.346 94.8157H901.904C904.315 106.602 914.236 110.945 922.879 110.945C933.765 110.945 938.418 104.432 938.418 104.432H958.585C952.498 119.93 937.936 128.45 922.241 128.45C900.626 128.45 881.737 112.485 881.737 88.3151C881.737 64.2859 900.469 49.406 921.601 49.406C942.095 49.406 962.914 63.1994 960.346 94.8157Z" fill="white"/>
<path fill-rule="evenodd" clip-rule="evenodd" d="M988.257 79.1658H1024.28C1021.88 70.0148 1015.31 66.3049 1007.3 66.3049C998.503 66.3049 991.451 71.1013 988.257 79.1658ZM1045.41 94.8157H986.979C989.377 106.602 999.298 110.945 1007.94 110.945C1018.83 110.945 1023.48 104.432 1023.48 104.432H1043.65C1037.56 119.93 1023 128.45 1007.3 128.45C985.689 128.45 966.799 112.485 966.799 88.3151C966.799 64.2859 985.531 49.406 1006.66 49.406C1027.16 49.406 1047.98 63.1994 1045.41 94.8157Z" fill="white"/>
<path fill-rule="evenodd" clip-rule="evenodd" d="M1116.69 110.325V127.678H1048.65V117.444L1087.24 67.5423H1050.26V50.1762H1115.1V60.4104L1076.51 110.325H1116.69Z" fill="white"/>
<path fill-rule="evenodd" clip-rule="evenodd" d="M1199.99 50.1762V118.378V119.93C1199.99 140.855 1188.94 159.458 1161.56 159.458C1135.94 159.458 1122.02 143.177 1122.02 130.936H1142.03C1142.03 130.936 1145.07 141.322 1160.92 141.322C1174.38 141.322 1179.98 133.876 1179.98 123.034V119.778C1176.45 123.653 1169.74 128.45 1157.73 128.45C1136.75 128.45 1123.63 113.734 1123.63 92.1893L1123.46 50.1762H1144.27V87.5334C1144.27 98.0705 1148.12 110.478 1161.41 110.478C1168.29 110.478 1179.66 107.221 1179.66 86.5991V50.1762H1199.99Z" fill="white"/>
<path fill-rule="evenodd" clip-rule="evenodd" d="M196.101 104.413C196.101 109.246 198.005 111.24 201.538 111.24C204.027 111.24 205.644 110.951 208.003 110.243L209.321 126.171C204.914 127.584 200.652 128.442 195.215 128.442C182.74 128.442 175.1 124.466 175.1 107.253V19.1799H196.101V104.413Z" fill="white"/>
<path fill-rule="evenodd" clip-rule="evenodd" d="M418.567 85.6778V127.679H397.265V90.3218C397.265 79.6324 398.387 66.142 383.655 67.391C379.823 67.694 369.25 69.3966 369.25 91.2561V127.679H348.118V90.3218C348.118 79.6324 349.239 66.142 334.509 67.391C330.663 67.694 320.104 69.3966 320.104 91.2561V127.679H298.971V50.1756H318.371L318.389 60.9344C318.389 60.9344 325.803 49.4055 339.631 49.4055C356.295 49.4055 362.835 61.9566 362.835 61.9566C362.835 61.9566 370.009 49.2549 388.309 49.2549C409.116 49.2549 418.567 64.1348 418.567 85.6778Z" fill="white"/>
<path fill-rule="evenodd" clip-rule="evenodd" d="M797.768 92.1772V50.176H819.07V87.5332C819.07 90.17 817.14 109.696 832.51 110.464C840.045 110.931 853.485 106.906 853.485 86.5989V50.176H874.617V127.679H855.245L855.156 116.921C855.156 116.921 846.41 128.449 830.097 128.449C809.448 128.449 797.768 113.57 797.768 92.1772Z" fill="white"/>
</svg>